<mxfile host="Electron" agent="Mozilla/5.0 (Windows NT 10.0; Win64; x64) AppleWebKit/537.36 (KHTML, like Gecko) draw.io/24.7.5 Chrome/126.0.6478.183 Electron/31.3.0 Safari/537.36" version="24.7.5" pages="3">
  <diagram name="Page-1" id="2YBvvXClWsGukQMizWep">
    <mxGraphModel dx="579" dy="681" grid="1" gridSize="10" guides="1" tooltips="1" connect="1" arrows="1" fold="1" page="1" pageScale="1" pageWidth="850" pageHeight="1100" math="0" shadow="0">
      <root>
        <mxCell id="0" />
        <mxCell id="1" parent="0" />
        <mxCell id="aM9ryv3xv72pqoxQDRHE-1" value="Staff" style="shape=umlLifeline;perimeter=lifelinePerimeter;whiteSpace=wrap;html=1;container=0;dropTarget=0;collapsible=0;recursiveResize=0;outlineConnect=0;portConstraint=eastwest;newEdgeStyle={&quot;edgeStyle&quot;:&quot;elbowEdgeStyle&quot;,&quot;elbow&quot;:&quot;vertical&quot;,&quot;curved&quot;:0,&quot;rounded&quot;:0};" parent="1" vertex="1">
          <mxGeometry x="130" y="120" width="100" height="520" as="geometry" />
        </mxCell>
        <mxCell id="aM9ryv3xv72pqoxQDRHE-2" value="" style="html=1;points=[];perimeter=orthogonalPerimeter;outlineConnect=0;targetShapes=umlLifeline;portConstraint=eastwest;newEdgeStyle={&quot;edgeStyle&quot;:&quot;elbowEdgeStyle&quot;,&quot;elbow&quot;:&quot;vertical&quot;,&quot;curved&quot;:0,&quot;rounded&quot;:0};" parent="aM9ryv3xv72pqoxQDRHE-1" vertex="1">
          <mxGeometry x="45" y="70" width="10" height="400" as="geometry" />
        </mxCell>
        <mxCell id="aM9ryv3xv72pqoxQDRHE-5" value="Login Interface" style="shape=umlLifeline;perimeter=lifelinePerimeter;whiteSpace=wrap;html=1;container=0;dropTarget=0;collapsible=0;recursiveResize=0;outlineConnect=0;portConstraint=eastwest;newEdgeStyle={&quot;edgeStyle&quot;:&quot;elbowEdgeStyle&quot;,&quot;elbow&quot;:&quot;vertical&quot;,&quot;curved&quot;:0,&quot;rounded&quot;:0};" parent="1" vertex="1">
          <mxGeometry x="260" y="120" width="100" height="300" as="geometry" />
        </mxCell>
        <mxCell id="aM9ryv3xv72pqoxQDRHE-6" value="" style="html=1;points=[];perimeter=orthogonalPerimeter;outlineConnect=0;targetShapes=umlLifeline;portConstraint=eastwest;newEdgeStyle={&quot;edgeStyle&quot;:&quot;elbowEdgeStyle&quot;,&quot;elbow&quot;:&quot;vertical&quot;,&quot;curved&quot;:0,&quot;rounded&quot;:0};" parent="aM9ryv3xv72pqoxQDRHE-5" vertex="1">
          <mxGeometry x="45" y="80" width="10" height="70" as="geometry" />
        </mxCell>
        <mxCell id="aM9ryv3xv72pqoxQDRHE-7" value="Login()" style="html=1;verticalAlign=bottom;endArrow=block;edgeStyle=elbowEdgeStyle;elbow=horizontal;curved=0;rounded=0;" parent="1" edge="1">
          <mxGeometry relative="1" as="geometry">
            <mxPoint x="186" y="200" as="sourcePoint" />
            <Array as="points">
              <mxPoint x="261" y="200" />
            </Array>
            <mxPoint x="306" y="200" as="targetPoint" />
          </mxGeometry>
        </mxCell>
        <mxCell id="aM9ryv3xv72pqoxQDRHE-10" value="response()" style="html=1;verticalAlign=bottom;endArrow=open;dashed=1;endSize=8;edgeStyle=elbowEdgeStyle;elbow=vertical;curved=0;rounded=0;" parent="1" edge="1">
          <mxGeometry x="0.2968" y="-10" relative="1" as="geometry">
            <mxPoint x="179.5" y="260" as="targetPoint" />
            <Array as="points">
              <mxPoint x="300" y="260" />
            </Array>
            <mxPoint x="220" y="260" as="sourcePoint" />
            <mxPoint as="offset" />
          </mxGeometry>
        </mxCell>
        <mxCell id="tqJ2PT1TYAWaRzA7SYkh-1" value="Doctor" style="shape=umlLifeline;perimeter=lifelinePerimeter;whiteSpace=wrap;html=1;container=0;dropTarget=0;collapsible=0;recursiveResize=0;outlineConnect=0;portConstraint=eastwest;newEdgeStyle={&quot;edgeStyle&quot;:&quot;elbowEdgeStyle&quot;,&quot;elbow&quot;:&quot;vertical&quot;,&quot;curved&quot;:0,&quot;rounded&quot;:0};" vertex="1" parent="1">
          <mxGeometry x="490" y="120" width="100" height="700" as="geometry" />
        </mxCell>
        <mxCell id="tqJ2PT1TYAWaRzA7SYkh-2" value="" style="html=1;points=[];perimeter=orthogonalPerimeter;outlineConnect=0;targetShapes=umlLifeline;portConstraint=eastwest;newEdgeStyle={&quot;edgeStyle&quot;:&quot;elbowEdgeStyle&quot;,&quot;elbow&quot;:&quot;vertical&quot;,&quot;curved&quot;:0,&quot;rounded&quot;:0};" vertex="1" parent="tqJ2PT1TYAWaRzA7SYkh-1">
          <mxGeometry x="45" y="160" width="10" height="480" as="geometry" />
        </mxCell>
        <mxCell id="tqJ2PT1TYAWaRzA7SYkh-3" value="HMS" style="shape=umlLifeline;perimeter=lifelinePerimeter;whiteSpace=wrap;html=1;container=0;dropTarget=0;collapsible=0;recursiveResize=0;outlineConnect=0;portConstraint=eastwest;newEdgeStyle={&quot;edgeStyle&quot;:&quot;elbowEdgeStyle&quot;,&quot;elbow&quot;:&quot;vertical&quot;,&quot;curved&quot;:0,&quot;rounded&quot;:0};" vertex="1" parent="1">
          <mxGeometry x="370" y="120" width="100" height="650" as="geometry" />
        </mxCell>
        <mxCell id="tqJ2PT1TYAWaRzA7SYkh-4" value="" style="html=1;points=[];perimeter=orthogonalPerimeter;outlineConnect=0;targetShapes=umlLifeline;portConstraint=eastwest;newEdgeStyle={&quot;edgeStyle&quot;:&quot;elbowEdgeStyle&quot;,&quot;elbow&quot;:&quot;vertical&quot;,&quot;curved&quot;:0,&quot;rounded&quot;:0};" vertex="1" parent="tqJ2PT1TYAWaRzA7SYkh-3">
          <mxGeometry x="45" y="80" width="10" height="50" as="geometry" />
        </mxCell>
        <mxCell id="tqJ2PT1TYAWaRzA7SYkh-9" value="" style="html=1;points=[];perimeter=orthogonalPerimeter;outlineConnect=0;targetShapes=umlLifeline;portConstraint=eastwest;newEdgeStyle={&quot;edgeStyle&quot;:&quot;elbowEdgeStyle&quot;,&quot;elbow&quot;:&quot;vertical&quot;,&quot;curved&quot;:0,&quot;rounded&quot;:0};" vertex="1" parent="tqJ2PT1TYAWaRzA7SYkh-3">
          <mxGeometry x="45" y="180" width="10" height="50" as="geometry" />
        </mxCell>
        <mxCell id="tqJ2PT1TYAWaRzA7SYkh-16" value="" style="html=1;points=[];perimeter=orthogonalPerimeter;outlineConnect=0;targetShapes=umlLifeline;portConstraint=eastwest;newEdgeStyle={&quot;edgeStyle&quot;:&quot;elbowEdgeStyle&quot;,&quot;elbow&quot;:&quot;vertical&quot;,&quot;curved&quot;:0,&quot;rounded&quot;:0};" vertex="1" parent="tqJ2PT1TYAWaRzA7SYkh-3">
          <mxGeometry x="45" y="260" width="10" height="160" as="geometry" />
        </mxCell>
        <mxCell id="tqJ2PT1TYAWaRzA7SYkh-5" value="Verify()" style="html=1;verticalAlign=bottom;endArrow=block;edgeStyle=elbowEdgeStyle;elbow=vertical;curved=0;rounded=0;" edge="1" parent="1">
          <mxGeometry relative="1" as="geometry">
            <mxPoint x="320" y="210" as="sourcePoint" />
            <Array as="points">
              <mxPoint x="395" y="210" />
            </Array>
            <mxPoint x="410" y="210" as="targetPoint" />
          </mxGeometry>
        </mxCell>
        <mxCell id="tqJ2PT1TYAWaRzA7SYkh-6" value="Success/Fail" style="html=1;verticalAlign=bottom;endArrow=open;dashed=1;endSize=8;edgeStyle=elbowEdgeStyle;elbow=vertical;curved=0;rounded=0;" edge="1" parent="1">
          <mxGeometry relative="1" as="geometry">
            <mxPoint x="320" y="240" as="targetPoint" />
            <Array as="points">
              <mxPoint x="405" y="240" />
            </Array>
            <mxPoint x="410" y="240" as="sourcePoint" />
          </mxGeometry>
        </mxCell>
        <mxCell id="tqJ2PT1TYAWaRzA7SYkh-7" value="" style="html=1;points=[];perimeter=orthogonalPerimeter;outlineConnect=0;targetShapes=umlLifeline;portConstraint=eastwest;newEdgeStyle={&quot;edgeStyle&quot;:&quot;elbowEdgeStyle&quot;,&quot;elbow&quot;:&quot;vertical&quot;,&quot;curved&quot;:0,&quot;rounded&quot;:0};" vertex="1" parent="1">
          <mxGeometry x="305" y="280" width="10" height="90" as="geometry" />
        </mxCell>
        <mxCell id="tqJ2PT1TYAWaRzA7SYkh-10" value="Login()" style="html=1;verticalAlign=bottom;endArrow=block;edgeStyle=elbowEdgeStyle;elbow=vertical;curved=0;rounded=0;" edge="1" parent="1">
          <mxGeometry relative="1" as="geometry">
            <mxPoint x="530" y="290" as="sourcePoint" />
            <Array as="points">
              <mxPoint x="529.9300000000001" y="290" />
            </Array>
            <mxPoint x="319.9952173913044" y="290" as="targetPoint" />
          </mxGeometry>
        </mxCell>
        <mxCell id="tqJ2PT1TYAWaRzA7SYkh-11" value="Verify()" style="html=1;verticalAlign=bottom;endArrow=block;edgeStyle=elbowEdgeStyle;elbow=vertical;curved=0;rounded=0;" edge="1" parent="1">
          <mxGeometry x="0.4194" y="-5" relative="1" as="geometry">
            <mxPoint x="332" y="314.5" as="sourcePoint" />
            <Array as="points">
              <mxPoint x="407" y="314.5" />
            </Array>
            <mxPoint x="327" y="314.5" as="targetPoint" />
            <mxPoint as="offset" />
          </mxGeometry>
        </mxCell>
        <mxCell id="tqJ2PT1TYAWaRzA7SYkh-13" value="Success/Fail" style="html=1;verticalAlign=bottom;endArrow=open;dashed=1;endSize=8;edgeStyle=elbowEdgeStyle;elbow=vertical;curved=0;rounded=0;" edge="1" parent="1" source="aM9ryv3xv72pqoxQDRHE-5">
          <mxGeometry x="0.0017" y="-20" relative="1" as="geometry">
            <mxPoint x="410" y="330" as="targetPoint" />
            <Array as="points" />
            <mxPoint x="500" y="330" as="sourcePoint" />
            <mxPoint as="offset" />
          </mxGeometry>
        </mxCell>
        <mxCell id="tqJ2PT1TYAWaRzA7SYkh-14" value="response()" style="html=1;verticalAlign=bottom;endArrow=open;dashed=1;endSize=8;edgeStyle=elbowEdgeStyle;elbow=vertical;curved=0;rounded=0;" edge="1" parent="1">
          <mxGeometry relative="1" as="geometry">
            <mxPoint x="530" y="360" as="targetPoint" />
            <Array as="points" />
            <mxPoint x="315" y="360.18" as="sourcePoint" />
          </mxGeometry>
        </mxCell>
        <mxCell id="tqJ2PT1TYAWaRzA7SYkh-17" value="CheckAvailability()" style="html=1;verticalAlign=bottom;endArrow=block;edgeStyle=elbowEdgeStyle;elbow=horizontal;curved=0;rounded=0;" edge="1" parent="1" target="tqJ2PT1TYAWaRzA7SYkh-16">
          <mxGeometry relative="1" as="geometry">
            <mxPoint x="185" y="410" as="sourcePoint" />
            <Array as="points">
              <mxPoint x="260" y="410" />
            </Array>
            <mxPoint x="305" y="410" as="targetPoint" />
          </mxGeometry>
        </mxCell>
        <mxCell id="tqJ2PT1TYAWaRzA7SYkh-19" value="DispayAvailabilitySLots()" style="html=1;verticalAlign=bottom;endArrow=open;dashed=1;endSize=8;edgeStyle=elbowEdgeStyle;elbow=vertical;curved=0;rounded=0;" edge="1" parent="1">
          <mxGeometry x="0.4054" y="-10" relative="1" as="geometry">
            <mxPoint x="190" y="440" as="targetPoint" />
            <Array as="points">
              <mxPoint x="420" y="440" />
            </Array>
            <mxPoint x="280" y="440" as="sourcePoint" />
            <mxPoint as="offset" />
          </mxGeometry>
        </mxCell>
        <mxCell id="tqJ2PT1TYAWaRzA7SYkh-20" value="BookAppointment()" style="html=1;verticalAlign=bottom;endArrow=block;edgeStyle=elbowEdgeStyle;elbow=horizontal;curved=0;rounded=0;" edge="1" parent="1">
          <mxGeometry relative="1" as="geometry">
            <mxPoint x="190" y="469.44" as="sourcePoint" />
            <Array as="points">
              <mxPoint x="265" y="469.44" />
            </Array>
            <mxPoint x="410" y="470" as="targetPoint" />
          </mxGeometry>
        </mxCell>
        <mxCell id="tqJ2PT1TYAWaRzA7SYkh-21" value="Notify()" style="html=1;verticalAlign=bottom;endArrow=block;edgeStyle=elbowEdgeStyle;elbow=horizontal;curved=0;rounded=0;" edge="1" parent="1" target="tqJ2PT1TYAWaRzA7SYkh-2">
          <mxGeometry relative="1" as="geometry">
            <mxPoint x="425" y="490" as="sourcePoint" />
            <Array as="points">
              <mxPoint x="500" y="490" />
            </Array>
            <mxPoint x="655" y="490" as="targetPoint" />
          </mxGeometry>
        </mxCell>
        <mxCell id="tqJ2PT1TYAWaRzA7SYkh-22" value="Confirmation()" style="html=1;verticalAlign=bottom;endArrow=open;dashed=1;endSize=8;edgeStyle=elbowEdgeStyle;elbow=vertical;curved=0;rounded=0;" edge="1" parent="1">
          <mxGeometry relative="1" as="geometry">
            <mxPoint x="440" y="520" as="targetPoint" />
            <Array as="points">
              <mxPoint x="525" y="520" />
            </Array>
            <mxPoint x="530" y="520" as="sourcePoint" />
          </mxGeometry>
        </mxCell>
        <mxCell id="1oReDKKiamNlcpfnCqBK-1" value="Dipesh Shrestha" style="rounded=0;whiteSpace=wrap;html=1;" vertex="1" parent="1">
          <mxGeometry x="280" y="40" width="120" height="60" as="geometry" />
        </mxCell>
      </root>
    </mxGraphModel>
  </diagram>
  <diagram id="k_Msn9N-YfFya0TZ9wXz" name="Page-2">
    <mxGraphModel dx="521" dy="613" grid="1" gridSize="10" guides="1" tooltips="1" connect="1" arrows="1" fold="1" page="1" pageScale="1" pageWidth="850" pageHeight="1100" math="0" shadow="0">
      <root>
        <mxCell id="0" />
        <mxCell id="1" parent="0" />
        <mxCell id="LZuoSOql_AdEsus71pCx-1" value="Staff" style="shape=umlLifeline;perimeter=lifelinePerimeter;whiteSpace=wrap;html=1;container=0;dropTarget=0;collapsible=0;recursiveResize=0;outlineConnect=0;portConstraint=eastwest;newEdgeStyle={&quot;edgeStyle&quot;:&quot;elbowEdgeStyle&quot;,&quot;elbow&quot;:&quot;vertical&quot;,&quot;curved&quot;:0,&quot;rounded&quot;:0};" parent="1" vertex="1">
          <mxGeometry y="120" width="100" height="180" as="geometry" />
        </mxCell>
        <mxCell id="LZuoSOql_AdEsus71pCx-2" value="" style="html=1;points=[];perimeter=orthogonalPerimeter;outlineConnect=0;targetShapes=umlLifeline;portConstraint=eastwest;newEdgeStyle={&quot;edgeStyle&quot;:&quot;elbowEdgeStyle&quot;,&quot;elbow&quot;:&quot;vertical&quot;,&quot;curved&quot;:0,&quot;rounded&quot;:0};" parent="LZuoSOql_AdEsus71pCx-1" vertex="1">
          <mxGeometry x="44" y="70" width="10" height="90" as="geometry" />
        </mxCell>
        <mxCell id="LZuoSOql_AdEsus71pCx-3" value="HMS" style="shape=umlLifeline;perimeter=lifelinePerimeter;whiteSpace=wrap;html=1;container=0;dropTarget=0;collapsible=0;recursiveResize=0;outlineConnect=0;portConstraint=eastwest;newEdgeStyle={&quot;edgeStyle&quot;:&quot;elbowEdgeStyle&quot;,&quot;elbow&quot;:&quot;vertical&quot;,&quot;curved&quot;:0,&quot;rounded&quot;:0};" parent="1" vertex="1">
          <mxGeometry x="130" y="120" width="100" height="180" as="geometry" />
        </mxCell>
        <mxCell id="LZuoSOql_AdEsus71pCx-4" value="" style="html=1;points=[];perimeter=orthogonalPerimeter;outlineConnect=0;targetShapes=umlLifeline;portConstraint=eastwest;newEdgeStyle={&quot;edgeStyle&quot;:&quot;elbowEdgeStyle&quot;,&quot;elbow&quot;:&quot;vertical&quot;,&quot;curved&quot;:0,&quot;rounded&quot;:0};" parent="LZuoSOql_AdEsus71pCx-3" vertex="1">
          <mxGeometry x="44" y="80" width="10" height="70" as="geometry" />
        </mxCell>
        <mxCell id="LZuoSOql_AdEsus71pCx-5" value="Prepare Bill()" style="html=1;verticalAlign=bottom;endArrow=block;edgeStyle=elbowEdgeStyle;elbow=horizontal;curved=0;rounded=0;" parent="1" edge="1">
          <mxGeometry relative="1" as="geometry">
            <mxPoint x="55" y="200" as="sourcePoint" />
            <Array as="points">
              <mxPoint x="130" y="200" />
            </Array>
            <mxPoint x="175" y="200" as="targetPoint" />
          </mxGeometry>
        </mxCell>
        <mxCell id="LZuoSOql_AdEsus71pCx-6" value="Response()()" style="html=1;verticalAlign=bottom;endArrow=open;dashed=1;endSize=8;edgeStyle=elbowEdgeStyle;elbow=vertical;curved=0;rounded=0;" parent="1" edge="1">
          <mxGeometry x="0.2968" y="-10" relative="1" as="geometry">
            <mxPoint x="48.5" y="260" as="targetPoint" />
            <Array as="points">
              <mxPoint x="169" y="260" />
            </Array>
            <mxPoint x="89" y="260" as="sourcePoint" />
            <mxPoint as="offset" />
          </mxGeometry>
        </mxCell>
        <mxCell id="LZuoSOql_AdEsus71pCx-9" value="Bill Management" style="shape=umlLifeline;perimeter=lifelinePerimeter;whiteSpace=wrap;html=1;container=0;dropTarget=0;collapsible=0;recursiveResize=0;outlineConnect=0;portConstraint=eastwest;newEdgeStyle={&quot;edgeStyle&quot;:&quot;elbowEdgeStyle&quot;,&quot;elbow&quot;:&quot;vertical&quot;,&quot;curved&quot;:0,&quot;rounded&quot;:0};" parent="1" vertex="1">
          <mxGeometry x="240" y="120" width="100" height="180" as="geometry" />
        </mxCell>
        <mxCell id="LZuoSOql_AdEsus71pCx-10" value="" style="html=1;points=[];perimeter=orthogonalPerimeter;outlineConnect=0;targetShapes=umlLifeline;portConstraint=eastwest;newEdgeStyle={&quot;edgeStyle&quot;:&quot;elbowEdgeStyle&quot;,&quot;elbow&quot;:&quot;vertical&quot;,&quot;curved&quot;:0,&quot;rounded&quot;:0};" parent="LZuoSOql_AdEsus71pCx-9" vertex="1">
          <mxGeometry x="44" y="80" width="10" height="50" as="geometry" />
        </mxCell>
        <mxCell id="LZuoSOql_AdEsus71pCx-13" value="GenerateBill()()" style="html=1;verticalAlign=bottom;endArrow=block;edgeStyle=elbowEdgeStyle;elbow=vertical;curved=0;rounded=0;" parent="1" edge="1">
          <mxGeometry relative="1" as="geometry">
            <mxPoint x="189" y="210" as="sourcePoint" />
            <Array as="points">
              <mxPoint x="264" y="210" />
            </Array>
            <mxPoint x="279" y="210" as="targetPoint" />
          </mxGeometry>
        </mxCell>
        <mxCell id="LZuoSOql_AdEsus71pCx-14" value="BillPrepared()" style="html=1;verticalAlign=bottom;endArrow=open;dashed=1;endSize=8;edgeStyle=elbowEdgeStyle;elbow=vertical;curved=0;rounded=0;" parent="1" edge="1">
          <mxGeometry relative="1" as="geometry">
            <mxPoint x="189" y="240" as="targetPoint" />
            <Array as="points">
              <mxPoint x="274" y="240" />
            </Array>
            <mxPoint x="279" y="240" as="sourcePoint" />
          </mxGeometry>
        </mxCell>
        <mxCell id="LZuoSOql_AdEsus71pCx-26" value="Staff" style="shape=umlLifeline;perimeter=lifelinePerimeter;whiteSpace=wrap;html=1;container=0;dropTarget=0;collapsible=0;recursiveResize=0;outlineConnect=0;portConstraint=eastwest;newEdgeStyle={&quot;edgeStyle&quot;:&quot;elbowEdgeStyle&quot;,&quot;elbow&quot;:&quot;vertical&quot;,&quot;curved&quot;:0,&quot;rounded&quot;:0};" parent="1" vertex="1">
          <mxGeometry x="390" y="120" width="100" height="260" as="geometry" />
        </mxCell>
        <mxCell id="LZuoSOql_AdEsus71pCx-27" value="" style="html=1;points=[];perimeter=orthogonalPerimeter;outlineConnect=0;targetShapes=umlLifeline;portConstraint=eastwest;newEdgeStyle={&quot;edgeStyle&quot;:&quot;elbowEdgeStyle&quot;,&quot;elbow&quot;:&quot;vertical&quot;,&quot;curved&quot;:0,&quot;rounded&quot;:0};" parent="LZuoSOql_AdEsus71pCx-26" vertex="1">
          <mxGeometry x="44" y="70" width="10" height="190" as="geometry" />
        </mxCell>
        <mxCell id="LZuoSOql_AdEsus71pCx-28" value="HMS" style="shape=umlLifeline;perimeter=lifelinePerimeter;whiteSpace=wrap;html=1;container=0;dropTarget=0;collapsible=0;recursiveResize=0;outlineConnect=0;portConstraint=eastwest;newEdgeStyle={&quot;edgeStyle&quot;:&quot;elbowEdgeStyle&quot;,&quot;elbow&quot;:&quot;vertical&quot;,&quot;curved&quot;:0,&quot;rounded&quot;:0};" parent="1" vertex="1">
          <mxGeometry x="514" y="115" width="100" height="260" as="geometry" />
        </mxCell>
        <mxCell id="LZuoSOql_AdEsus71pCx-29" value="" style="html=1;points=[];perimeter=orthogonalPerimeter;outlineConnect=0;targetShapes=umlLifeline;portConstraint=eastwest;newEdgeStyle={&quot;edgeStyle&quot;:&quot;elbowEdgeStyle&quot;,&quot;elbow&quot;:&quot;vertical&quot;,&quot;curved&quot;:0,&quot;rounded&quot;:0};" parent="LZuoSOql_AdEsus71pCx-28" vertex="1">
          <mxGeometry x="44" y="80" width="10" height="180" as="geometry" />
        </mxCell>
        <mxCell id="LZuoSOql_AdEsus71pCx-32" value="Report Management" style="shape=umlLifeline;perimeter=lifelinePerimeter;whiteSpace=wrap;html=1;container=0;dropTarget=0;collapsible=0;recursiveResize=0;outlineConnect=0;portConstraint=eastwest;newEdgeStyle={&quot;edgeStyle&quot;:&quot;elbowEdgeStyle&quot;,&quot;elbow&quot;:&quot;vertical&quot;,&quot;curved&quot;:0,&quot;rounded&quot;:0};" parent="1" vertex="1">
          <mxGeometry x="630" y="120" width="100" height="260" as="geometry" />
        </mxCell>
        <mxCell id="LZuoSOql_AdEsus71pCx-33" value="" style="html=1;points=[];perimeter=orthogonalPerimeter;outlineConnect=0;targetShapes=umlLifeline;portConstraint=eastwest;newEdgeStyle={&quot;edgeStyle&quot;:&quot;elbowEdgeStyle&quot;,&quot;elbow&quot;:&quot;vertical&quot;,&quot;curved&quot;:0,&quot;rounded&quot;:0};" parent="LZuoSOql_AdEsus71pCx-32" vertex="1">
          <mxGeometry x="45" y="120" width="10" height="140" as="geometry" />
        </mxCell>
        <mxCell id="LZuoSOql_AdEsus71pCx-36" value="Doctor" style="shape=umlLifeline;perimeter=lifelinePerimeter;whiteSpace=wrap;html=1;container=0;dropTarget=0;collapsible=0;recursiveResize=0;outlineConnect=0;portConstraint=eastwest;newEdgeStyle={&quot;edgeStyle&quot;:&quot;elbowEdgeStyle&quot;,&quot;elbow&quot;:&quot;vertical&quot;,&quot;curved&quot;:0,&quot;rounded&quot;:0};" parent="1" vertex="1">
          <mxGeometry x="740" y="120" width="100" height="220" as="geometry" />
        </mxCell>
        <mxCell id="LZuoSOql_AdEsus71pCx-37" value="" style="html=1;points=[];perimeter=orthogonalPerimeter;outlineConnect=0;targetShapes=umlLifeline;portConstraint=eastwest;newEdgeStyle={&quot;edgeStyle&quot;:&quot;elbowEdgeStyle&quot;,&quot;elbow&quot;:&quot;vertical&quot;,&quot;curved&quot;:0,&quot;rounded&quot;:0};" parent="LZuoSOql_AdEsus71pCx-36" vertex="1">
          <mxGeometry x="44" y="70" width="10" height="150" as="geometry" />
        </mxCell>
        <mxCell id="LZuoSOql_AdEsus71pCx-39" value="" style="endArrow=classic;html=1;rounded=0;" parent="1" target="LZuoSOql_AdEsus71pCx-32" edge="1">
          <mxGeometry width="50" height="50" relative="1" as="geometry">
            <mxPoint x="570" y="250" as="sourcePoint" />
            <mxPoint x="620" y="200" as="targetPoint" />
          </mxGeometry>
        </mxCell>
        <mxCell id="LZuoSOql_AdEsus71pCx-43" value="SaveReport()" style="edgeLabel;html=1;align=center;verticalAlign=middle;resizable=0;points=[];" parent="LZuoSOql_AdEsus71pCx-39" vertex="1" connectable="0">
          <mxGeometry x="0.0489" y="7" relative="1" as="geometry">
            <mxPoint as="offset" />
          </mxGeometry>
        </mxCell>
        <mxCell id="LZuoSOql_AdEsus71pCx-40" value="" style="endArrow=classic;html=1;rounded=0;entryX=0.492;entryY=0.517;entryDx=0;entryDy=0;entryPerimeter=0;" parent="1" edge="1">
          <mxGeometry width="50" height="50" relative="1" as="geometry">
            <mxPoint x="794.2999999999997" y="219.99999999999994" as="sourcePoint" />
            <mxPoint x="568" y="219.99999999999994" as="targetPoint" />
          </mxGeometry>
        </mxCell>
        <mxCell id="LZuoSOql_AdEsus71pCx-41" value="PrepareReport()" style="edgeLabel;html=1;align=center;verticalAlign=middle;resizable=0;points=[];" parent="LZuoSOql_AdEsus71pCx-40" vertex="1" connectable="0">
          <mxGeometry x="0.2221" y="-2" relative="1" as="geometry">
            <mxPoint x="-26" y="-8" as="offset" />
          </mxGeometry>
        </mxCell>
        <mxCell id="LZuoSOql_AdEsus71pCx-44" value="Confirmation()" style="html=1;verticalAlign=bottom;endArrow=open;dashed=1;endSize=8;edgeStyle=elbowEdgeStyle;elbow=vertical;curved=0;rounded=0;" parent="1" edge="1">
          <mxGeometry x="-0.6519" y="-20" relative="1" as="geometry">
            <mxPoint x="570" y="270" as="targetPoint" />
            <Array as="points">
              <mxPoint x="670" y="270" />
            </Array>
            <mxPoint x="600.5" y="270" as="sourcePoint" />
            <mxPoint as="offset" />
          </mxGeometry>
        </mxCell>
        <mxCell id="LZuoSOql_AdEsus71pCx-47" value="" style="endArrow=classic;html=1;rounded=0;" parent="1" edge="1">
          <mxGeometry width="50" height="50" relative="1" as="geometry">
            <mxPoint x="439.54761904761904" y="310" as="sourcePoint" />
            <mxPoint x="560" y="310" as="targetPoint" />
          </mxGeometry>
        </mxCell>
        <mxCell id="LZuoSOql_AdEsus71pCx-49" value="Read Report" style="text;html=1;align=center;verticalAlign=middle;resizable=0;points=[];autosize=1;strokeColor=none;fillColor=none;" parent="1" vertex="1">
          <mxGeometry x="445" y="288" width="90" height="30" as="geometry" />
        </mxCell>
        <mxCell id="LZuoSOql_AdEsus71pCx-50" value="" style="endArrow=classic;html=1;rounded=0;" parent="1" edge="1">
          <mxGeometry width="50" height="50" relative="1" as="geometry">
            <mxPoint x="568" y="330" as="sourcePoint" />
            <mxPoint x="677" y="330" as="targetPoint" />
          </mxGeometry>
        </mxCell>
        <mxCell id="LZuoSOql_AdEsus71pCx-51" value="RequestReport()" style="edgeLabel;html=1;align=center;verticalAlign=middle;resizable=0;points=[];" parent="LZuoSOql_AdEsus71pCx-50" vertex="1" connectable="0">
          <mxGeometry x="0.0489" y="7" relative="1" as="geometry">
            <mxPoint as="offset" />
          </mxGeometry>
        </mxCell>
        <mxCell id="LZuoSOql_AdEsus71pCx-52" value="SendReport(()" style="html=1;verticalAlign=bottom;endArrow=open;dashed=1;endSize=8;edgeStyle=elbowEdgeStyle;elbow=vertical;curved=0;rounded=0;" parent="1" edge="1">
          <mxGeometry x="-0.6519" y="-20" relative="1" as="geometry">
            <mxPoint x="570" y="350" as="targetPoint" />
            <Array as="points">
              <mxPoint x="670" y="350" />
            </Array>
            <mxPoint x="600.5" y="350" as="sourcePoint" />
            <mxPoint as="offset" />
          </mxGeometry>
        </mxCell>
        <mxCell id="LZuoSOql_AdEsus71pCx-53" value="DisplayReport(()" style="html=1;verticalAlign=bottom;endArrow=open;dashed=1;endSize=8;edgeStyle=elbowEdgeStyle;elbow=vertical;curved=0;rounded=0;" parent="1" edge="1">
          <mxGeometry x="-0.6519" y="-20" relative="1" as="geometry">
            <mxPoint x="450" y="360" as="targetPoint" />
            <Array as="points">
              <mxPoint x="550" y="360" />
            </Array>
            <mxPoint x="480.5" y="360" as="sourcePoint" />
            <mxPoint as="offset" />
          </mxGeometry>
        </mxCell>
        <mxCell id="LZuoSOql_AdEsus71pCx-55" value="Response()" style="html=1;verticalAlign=bottom;endArrow=open;dashed=1;endSize=8;edgeStyle=elbowEdgeStyle;elbow=vertical;curved=0;rounded=0;" parent="1" edge="1">
          <mxGeometry x="-0.9889" y="-12" relative="1" as="geometry">
            <mxPoint x="789.4999999999998" y="302" as="targetPoint" />
            <Array as="points">
              <mxPoint x="670" y="302" />
            </Array>
            <mxPoint x="731" y="302" as="sourcePoint" />
            <mxPoint as="offset" />
          </mxGeometry>
        </mxCell>
        <mxCell id="1r96wjynDyrrPjhRciY_-1" value="Dipesh Shrestha" style="rounded=0;whiteSpace=wrap;html=1;" parent="1" vertex="1">
          <mxGeometry x="90" y="30" width="120" height="60" as="geometry" />
        </mxCell>
      </root>
    </mxGraphModel>
  </diagram>
  <diagram id="FPpr2LtTT5gFzCt6i0ib" name="Page-3">
    <mxGraphModel dx="1229" dy="591" grid="1" gridSize="10" guides="1" tooltips="1" connect="1" arrows="1" fold="1" page="1" pageScale="1" pageWidth="850" pageHeight="1100" math="0" shadow="0">
      <root>
        <mxCell id="0" />
        <mxCell id="1" parent="0" />
        <mxCell id="DXWsOIUKNxAtbg25oVt_-1" value="Passenger/Customer" style="html=1;whiteSpace=wrap;" vertex="1" parent="1">
          <mxGeometry x="30" y="70" width="140" height="50" as="geometry" />
        </mxCell>
        <mxCell id="DXWsOIUKNxAtbg25oVt_-2" value="Driver" style="html=1;whiteSpace=wrap;" vertex="1" parent="1">
          <mxGeometry x="190" y="70" width="140" height="50" as="geometry" />
        </mxCell>
        <mxCell id="DXWsOIUKNxAtbg25oVt_-3" value="Login&amp;nbsp;" style="html=1;whiteSpace=wrap;" vertex="1" parent="1">
          <mxGeometry x="353" y="70" width="80" height="50" as="geometry" />
        </mxCell>
        <mxCell id="DXWsOIUKNxAtbg25oVt_-4" value="Ride Handling" style="html=1;whiteSpace=wrap;" vertex="1" parent="1">
          <mxGeometry x="456" y="70" width="80" height="50" as="geometry" />
        </mxCell>
        <mxCell id="DXWsOIUKNxAtbg25oVt_-5" value="Logout" style="html=1;whiteSpace=wrap;" vertex="1" parent="1">
          <mxGeometry x="560" y="70" width="80" height="50" as="geometry" />
        </mxCell>
        <mxCell id="DXWsOIUKNxAtbg25oVt_-6" value="" style="endArrow=none;html=1;rounded=0;dashed=1;dashPattern=1 2;exitX=0.5;exitY=1;exitDx=0;exitDy=0;" edge="1" parent="1">
          <mxGeometry relative="1" as="geometry">
            <mxPoint x="95" y="120" as="sourcePoint" />
            <mxPoint x="95" y="750" as="targetPoint" />
          </mxGeometry>
        </mxCell>
        <mxCell id="DXWsOIUKNxAtbg25oVt_-8" value="" style="endArrow=none;html=1;rounded=0;dashed=1;dashPattern=1 2;exitX=0.5;exitY=1;exitDx=0;exitDy=0;" edge="1" parent="1" source="UyrblHiYHOrMbJsTP4h3-21">
          <mxGeometry relative="1" as="geometry">
            <mxPoint x="263" y="121" as="sourcePoint" />
            <mxPoint x="263" y="751" as="targetPoint" />
          </mxGeometry>
        </mxCell>
        <mxCell id="DXWsOIUKNxAtbg25oVt_-9" value="" style="endArrow=none;html=1;rounded=0;dashed=1;dashPattern=1 2;exitX=0.5;exitY=1;exitDx=0;exitDy=0;" edge="1" parent="1">
          <mxGeometry relative="1" as="geometry">
            <mxPoint x="400" y="640" as="sourcePoint" />
            <mxPoint x="399" y="752" as="targetPoint" />
          </mxGeometry>
        </mxCell>
        <mxCell id="DXWsOIUKNxAtbg25oVt_-10" value="" style="endArrow=none;html=1;rounded=0;dashed=1;dashPattern=1 2;exitX=0.5;exitY=1;exitDx=0;exitDy=0;" edge="1" parent="1">
          <mxGeometry relative="1" as="geometry">
            <mxPoint x="494" y="120" as="sourcePoint" />
            <mxPoint x="494" y="750" as="targetPoint" />
          </mxGeometry>
        </mxCell>
        <mxCell id="DXWsOIUKNxAtbg25oVt_-11" value="" style="endArrow=none;html=1;rounded=0;dashed=1;dashPattern=1 2;exitX=0.5;exitY=1;exitDx=0;exitDy=0;" edge="1" parent="1">
          <mxGeometry relative="1" as="geometry">
            <mxPoint x="598" y="122" as="sourcePoint" />
            <mxPoint x="598" y="752" as="targetPoint" />
          </mxGeometry>
        </mxCell>
        <mxCell id="DXWsOIUKNxAtbg25oVt_-13" value="" style="endArrow=none;html=1;rounded=0;dashed=1;dashPattern=1 2;exitX=0.5;exitY=1;exitDx=0;exitDy=0;" edge="1" parent="1" target="DXWsOIUKNxAtbg25oVt_-12">
          <mxGeometry relative="1" as="geometry">
            <mxPoint x="399" y="122" as="sourcePoint" />
            <mxPoint x="399" y="752" as="targetPoint" />
          </mxGeometry>
        </mxCell>
        <mxCell id="DXWsOIUKNxAtbg25oVt_-12" value="" style="html=1;points=[[0,0,0,0,5],[0,1,0,0,-5],[1,0,0,0,5],[1,1,0,0,-5]];perimeter=orthogonalPerimeter;outlineConnect=0;targetShapes=umlLifeline;portConstraint=eastwest;newEdgeStyle={&quot;curved&quot;:0,&quot;rounded&quot;:0};" vertex="1" parent="1">
          <mxGeometry x="395" y="147" width="10" height="63" as="geometry" />
        </mxCell>
        <mxCell id="UyrblHiYHOrMbJsTP4h3-1" value="" style="html=1;verticalAlign=bottom;endArrow=block;edgeStyle=elbowEdgeStyle;elbow=horizontal;curved=0;rounded=0;" edge="1" parent="1">
          <mxGeometry relative="1" as="geometry">
            <mxPoint x="100" y="170" as="sourcePoint" />
            <Array as="points">
              <mxPoint x="175" y="170" />
            </Array>
            <mxPoint x="390" y="170" as="targetPoint" />
          </mxGeometry>
        </mxCell>
        <mxCell id="UyrblHiYHOrMbJsTP4h3-2" value="" style="html=1;verticalAlign=bottom;endArrow=open;dashed=1;endSize=8;edgeStyle=elbowEdgeStyle;elbow=vertical;curved=0;rounded=0;" edge="1" parent="1">
          <mxGeometry x="0.2968" y="-10" relative="1" as="geometry">
            <mxPoint x="100" y="190" as="targetPoint" />
            <Array as="points">
              <mxPoint x="395" y="190" />
            </Array>
            <mxPoint x="315" y="190" as="sourcePoint" />
            <mxPoint as="offset" />
          </mxGeometry>
        </mxCell>
        <mxCell id="UyrblHiYHOrMbJsTP4h3-3" value="Login info" style="text;html=1;align=center;verticalAlign=middle;resizable=0;points=[];autosize=1;strokeColor=none;fillColor=none;" vertex="1" parent="1">
          <mxGeometry x="180" y="138" width="80" height="30" as="geometry" />
        </mxCell>
        <mxCell id="UyrblHiYHOrMbJsTP4h3-4" value="response" style="text;html=1;align=center;verticalAlign=middle;resizable=0;points=[];autosize=1;strokeColor=none;fillColor=none;" vertex="1" parent="1">
          <mxGeometry x="185" y="188" width="70" height="30" as="geometry" />
        </mxCell>
        <mxCell id="UyrblHiYHOrMbJsTP4h3-5" value="" style="html=1;points=[[0,0,0,0,5],[0,1,0,0,-5],[1,0,0,0,5],[1,1,0,0,-5]];perimeter=orthogonalPerimeter;outlineConnect=0;targetShapes=umlLifeline;portConstraint=eastwest;newEdgeStyle={&quot;curved&quot;:0,&quot;rounded&quot;:0};" vertex="1" parent="1">
          <mxGeometry x="491" y="210" width="10" height="310" as="geometry" />
        </mxCell>
        <mxCell id="UyrblHiYHOrMbJsTP4h3-6" value="" style="html=1;verticalAlign=bottom;endArrow=block;edgeStyle=elbowEdgeStyle;elbow=horizontal;curved=0;rounded=0;" edge="1" parent="1">
          <mxGeometry relative="1" as="geometry">
            <mxPoint x="100" y="240" as="sourcePoint" />
            <Array as="points">
              <mxPoint x="175" y="240" />
            </Array>
            <mxPoint x="490" y="240" as="targetPoint" />
          </mxGeometry>
        </mxCell>
        <mxCell id="UyrblHiYHOrMbJsTP4h3-7" value="" style="html=1;verticalAlign=bottom;endArrow=open;dashed=1;endSize=8;edgeStyle=elbowEdgeStyle;elbow=vertical;curved=0;rounded=0;" edge="1" parent="1">
          <mxGeometry x="0.2968" y="-10" relative="1" as="geometry">
            <mxPoint x="100" y="260" as="targetPoint" />
            <Array as="points">
              <mxPoint x="490" y="260" />
            </Array>
            <mxPoint x="315" y="260" as="sourcePoint" />
            <mxPoint as="offset" />
          </mxGeometry>
        </mxCell>
        <mxCell id="UyrblHiYHOrMbJsTP4h3-8" value="Ride Request" style="text;html=1;align=center;verticalAlign=middle;resizable=0;points=[];autosize=1;strokeColor=none;fillColor=none;" vertex="1" parent="1">
          <mxGeometry x="270" y="218" width="100" height="30" as="geometry" />
        </mxCell>
        <mxCell id="UyrblHiYHOrMbJsTP4h3-9" value="Request pickup&amp;nbsp;&lt;div&gt;and destination point&lt;/div&gt;" style="text;html=1;align=center;verticalAlign=middle;resizable=0;points=[];autosize=1;strokeColor=none;fillColor=none;" vertex="1" parent="1">
          <mxGeometry x="260" y="254" width="130" height="40" as="geometry" />
        </mxCell>
        <mxCell id="UyrblHiYHOrMbJsTP4h3-10" value="" style="html=1;verticalAlign=bottom;endArrow=block;edgeStyle=elbowEdgeStyle;elbow=horizontal;curved=0;rounded=0;entryX=-0.1;entryY=0.184;entryDx=0;entryDy=0;entryPerimeter=0;" edge="1" parent="1">
          <mxGeometry relative="1" as="geometry">
            <mxPoint x="101" y="300" as="sourcePoint" />
            <Array as="points">
              <mxPoint x="176" y="300" />
            </Array>
            <mxPoint x="491" y="300" as="targetPoint" />
          </mxGeometry>
        </mxCell>
        <mxCell id="UyrblHiYHOrMbJsTP4h3-11" value="" style="html=1;verticalAlign=bottom;endArrow=open;dashed=1;endSize=8;edgeStyle=elbowEdgeStyle;elbow=vertical;curved=0;rounded=0;" edge="1" parent="1">
          <mxGeometry x="0.2968" y="-10" relative="1" as="geometry">
            <mxPoint x="101" y="320" as="targetPoint" />
            <Array as="points">
              <mxPoint x="491" y="320" />
            </Array>
            <mxPoint x="316" y="320" as="sourcePoint" />
            <mxPoint as="offset" />
          </mxGeometry>
        </mxCell>
        <mxCell id="UyrblHiYHOrMbJsTP4h3-12" value="Enters pickup&amp;nbsp;&lt;div&gt;and destination point&lt;/div&gt;" style="text;html=1;align=center;verticalAlign=middle;resizable=0;points=[];autosize=1;strokeColor=none;fillColor=none;" vertex="1" parent="1">
          <mxGeometry x="125" y="267" width="130" height="40" as="geometry" />
        </mxCell>
        <mxCell id="UyrblHiYHOrMbJsTP4h3-13" value="Sends Fare" style="text;html=1;align=center;verticalAlign=middle;resizable=0;points=[];autosize=1;strokeColor=none;fillColor=none;" vertex="1" parent="1">
          <mxGeometry x="255" y="318" width="90" height="30" as="geometry" />
        </mxCell>
        <mxCell id="UyrblHiYHOrMbJsTP4h3-14" value="" style="html=1;verticalAlign=bottom;endArrow=block;edgeStyle=elbowEdgeStyle;elbow=horizontal;curved=0;rounded=0;entryX=-0.1;entryY=0.184;entryDx=0;entryDy=0;entryPerimeter=0;" edge="1" parent="1">
          <mxGeometry relative="1" as="geometry">
            <mxPoint x="100" y="342" as="sourcePoint" />
            <Array as="points">
              <mxPoint x="175" y="342" />
            </Array>
            <mxPoint x="490" y="342" as="targetPoint" />
          </mxGeometry>
        </mxCell>
        <mxCell id="UyrblHiYHOrMbJsTP4h3-15" value="" style="html=1;verticalAlign=bottom;endArrow=open;dashed=1;endSize=8;edgeStyle=elbowEdgeStyle;elbow=vertical;curved=0;rounded=0;" edge="1" parent="1">
          <mxGeometry x="0.2968" y="-10" relative="1" as="geometry">
            <mxPoint x="266" y="408" as="targetPoint" />
            <Array as="points">
              <mxPoint x="390" y="408" />
            </Array>
            <mxPoint x="310" y="408" as="sourcePoint" />
            <mxPoint as="offset" />
          </mxGeometry>
        </mxCell>
        <mxCell id="UyrblHiYHOrMbJsTP4h3-16" value="" style="html=1;verticalAlign=bottom;endArrow=block;edgeStyle=elbowEdgeStyle;elbow=horizontal;curved=0;rounded=0;" edge="1" parent="1">
          <mxGeometry relative="1" as="geometry">
            <mxPoint x="266" y="388" as="sourcePoint" />
            <Array as="points" />
            <mxPoint x="395" y="388" as="targetPoint" />
          </mxGeometry>
        </mxCell>
        <mxCell id="UyrblHiYHOrMbJsTP4h3-17" value="" style="html=1;points=[[0,0,0,0,5],[0,1,0,0,-5],[1,0,0,0,5],[1,1,0,0,-5]];perimeter=orthogonalPerimeter;outlineConnect=0;targetShapes=umlLifeline;portConstraint=eastwest;newEdgeStyle={&quot;curved&quot;:0,&quot;rounded&quot;:0};" vertex="1" parent="1">
          <mxGeometry x="394" y="365" width="10" height="63" as="geometry" />
        </mxCell>
        <mxCell id="UyrblHiYHOrMbJsTP4h3-18" value="response" style="text;html=1;align=center;verticalAlign=middle;resizable=0;points=[];autosize=1;strokeColor=none;fillColor=none;" vertex="1" parent="1">
          <mxGeometry x="290" y="398" width="70" height="30" as="geometry" />
        </mxCell>
        <mxCell id="UyrblHiYHOrMbJsTP4h3-19" value="Login info" style="text;html=1;align=center;verticalAlign=middle;resizable=0;points=[];autosize=1;strokeColor=none;fillColor=none;" vertex="1" parent="1">
          <mxGeometry x="280" y="365" width="80" height="30" as="geometry" />
        </mxCell>
        <mxCell id="UyrblHiYHOrMbJsTP4h3-20" value="" style="html=1;points=[[0,0,0,0,5],[0,1,0,0,-5],[1,0,0,0,5],[1,1,0,0,-5]];perimeter=orthogonalPerimeter;outlineConnect=0;targetShapes=umlLifeline;portConstraint=eastwest;newEdgeStyle={&quot;curved&quot;:0,&quot;rounded&quot;:0};" vertex="1" parent="1">
          <mxGeometry x="90" y="147" width="10" height="503" as="geometry" />
        </mxCell>
        <mxCell id="UyrblHiYHOrMbJsTP4h3-22" value="" style="endArrow=none;html=1;rounded=0;dashed=1;dashPattern=1 2;exitX=0.5;exitY=1;exitDx=0;exitDy=0;" edge="1" parent="1">
          <mxGeometry relative="1" as="geometry">
            <mxPoint x="263" y="121" as="sourcePoint" />
            <mxPoint x="260" y="348" as="targetPoint" />
          </mxGeometry>
        </mxCell>
        <mxCell id="UyrblHiYHOrMbJsTP4h3-21" value="" style="html=1;points=[[0,0,0,0,5],[0,1,0,0,-5],[1,0,0,0,5],[1,1,0,0,-5]];perimeter=orthogonalPerimeter;outlineConnect=0;targetShapes=umlLifeline;portConstraint=eastwest;newEdgeStyle={&quot;curved&quot;:0,&quot;rounded&quot;:0};" vertex="1" parent="1">
          <mxGeometry x="255" y="348" width="10" height="242" as="geometry" />
        </mxCell>
        <mxCell id="UyrblHiYHOrMbJsTP4h3-23" value="" style="html=1;verticalAlign=bottom;endArrow=open;dashed=1;endSize=8;edgeStyle=elbowEdgeStyle;elbow=vertical;curved=0;rounded=0;" edge="1" parent="1" target="UyrblHiYHOrMbJsTP4h3-21">
          <mxGeometry x="0.2968" y="-10" relative="1" as="geometry">
            <mxPoint x="196" y="450" as="targetPoint" />
            <Array as="points">
              <mxPoint x="491" y="450" />
            </Array>
            <mxPoint x="411" y="450" as="sourcePoint" />
            <mxPoint as="offset" />
          </mxGeometry>
        </mxCell>
        <mxCell id="UyrblHiYHOrMbJsTP4h3-24" value="Send Ride Request" style="edgeLabel;html=1;align=center;verticalAlign=middle;resizable=0;points=[];" vertex="1" connectable="0" parent="UyrblHiYHOrMbJsTP4h3-23">
          <mxGeometry x="0.3349" y="3" relative="1" as="geometry">
            <mxPoint as="offset" />
          </mxGeometry>
        </mxCell>
        <mxCell id="UyrblHiYHOrMbJsTP4h3-25" value="" style="html=1;verticalAlign=bottom;endArrow=block;edgeStyle=elbowEdgeStyle;elbow=horizontal;curved=0;rounded=0;" edge="1" parent="1">
          <mxGeometry relative="1" as="geometry">
            <mxPoint x="265" y="480" as="sourcePoint" />
            <Array as="points">
              <mxPoint x="340" y="480" />
            </Array>
            <mxPoint x="490" y="480" as="targetPoint" />
          </mxGeometry>
        </mxCell>
        <mxCell id="UyrblHiYHOrMbJsTP4h3-26" value="Accept or Reject Ride" style="text;html=1;align=center;verticalAlign=middle;resizable=0;points=[];autosize=1;strokeColor=none;fillColor=none;" vertex="1" parent="1">
          <mxGeometry x="270" y="478" width="140" height="30" as="geometry" />
        </mxCell>
        <mxCell id="UyrblHiYHOrMbJsTP4h3-28" value="" style="endArrow=none;html=1;rounded=0;dashed=1;dashPattern=1 2;exitX=0.5;exitY=1;exitDx=0;exitDy=0;" edge="1" parent="1" source="DXWsOIUKNxAtbg25oVt_-12">
          <mxGeometry relative="1" as="geometry">
            <mxPoint x="400" y="210" as="sourcePoint" />
            <mxPoint x="400" y="530" as="targetPoint" />
          </mxGeometry>
        </mxCell>
        <mxCell id="UyrblHiYHOrMbJsTP4h3-29" value="" style="html=1;verticalAlign=bottom;endArrow=block;edgeStyle=elbowEdgeStyle;elbow=horizontal;curved=0;rounded=0;" edge="1" parent="1" target="UyrblHiYHOrMbJsTP4h3-33">
          <mxGeometry relative="1" as="geometry">
            <mxPoint x="270" y="549" as="sourcePoint" />
            <Array as="points">
              <mxPoint x="335" y="549" />
            </Array>
            <mxPoint x="395" y="549" as="targetPoint" />
          </mxGeometry>
        </mxCell>
        <mxCell id="UyrblHiYHOrMbJsTP4h3-30" value="Logout" style="text;html=1;align=center;verticalAlign=middle;resizable=0;points=[];autosize=1;strokeColor=none;fillColor=none;" vertex="1" parent="1">
          <mxGeometry x="290" y="528" width="60" height="30" as="geometry" />
        </mxCell>
        <mxCell id="UyrblHiYHOrMbJsTP4h3-31" value="" style="html=1;verticalAlign=bottom;endArrow=open;dashed=1;endSize=8;edgeStyle=elbowEdgeStyle;elbow=vertical;curved=0;rounded=0;" edge="1" parent="1">
          <mxGeometry x="0.2968" y="-10" relative="1" as="geometry">
            <mxPoint x="271" y="568" as="targetPoint" />
            <Array as="points">
              <mxPoint x="600" y="568" />
            </Array>
            <mxPoint x="315" y="568" as="sourcePoint" />
            <mxPoint as="offset" />
          </mxGeometry>
        </mxCell>
        <mxCell id="UyrblHiYHOrMbJsTP4h3-32" value="response" style="text;html=1;align=center;verticalAlign=middle;resizable=0;points=[];autosize=1;strokeColor=none;fillColor=none;" vertex="1" parent="1">
          <mxGeometry x="295" y="558" width="70" height="30" as="geometry" />
        </mxCell>
        <mxCell id="UyrblHiYHOrMbJsTP4h3-33" value="" style="html=1;points=[[0,0,0,0,5],[0,1,0,0,-5],[1,0,0,0,5],[1,1,0,0,-5]];perimeter=orthogonalPerimeter;outlineConnect=0;targetShapes=umlLifeline;portConstraint=eastwest;newEdgeStyle={&quot;curved&quot;:0,&quot;rounded&quot;:0};" vertex="1" parent="1">
          <mxGeometry x="590" y="220" width="10" height="440" as="geometry" />
        </mxCell>
        <mxCell id="UyrblHiYHOrMbJsTP4h3-34" value="" style="html=1;verticalAlign=bottom;endArrow=block;edgeStyle=elbowEdgeStyle;elbow=horizontal;curved=0;rounded=0;" edge="1" parent="1" target="UyrblHiYHOrMbJsTP4h3-33">
          <mxGeometry relative="1" as="geometry">
            <mxPoint x="100" y="611" as="sourcePoint" />
            <Array as="points">
              <mxPoint x="165" y="611" />
            </Array>
            <mxPoint x="420" y="611" as="targetPoint" />
          </mxGeometry>
        </mxCell>
        <mxCell id="UyrblHiYHOrMbJsTP4h3-35" value="Logout" style="text;html=1;align=center;verticalAlign=middle;resizable=0;points=[];autosize=1;strokeColor=none;fillColor=none;" vertex="1" parent="1">
          <mxGeometry x="120" y="590" width="60" height="30" as="geometry" />
        </mxCell>
        <mxCell id="UyrblHiYHOrMbJsTP4h3-36" value="" style="html=1;verticalAlign=bottom;endArrow=open;dashed=1;endSize=8;edgeStyle=elbowEdgeStyle;elbow=vertical;curved=0;rounded=0;" edge="1" parent="1">
          <mxGeometry x="0.2968" y="-10" relative="1" as="geometry">
            <mxPoint x="101" y="630" as="targetPoint" />
            <Array as="points">
              <mxPoint x="590" y="630" />
            </Array>
            <mxPoint x="145" y="630" as="sourcePoint" />
            <mxPoint as="offset" />
          </mxGeometry>
        </mxCell>
        <mxCell id="UyrblHiYHOrMbJsTP4h3-37" value="response" style="text;html=1;align=center;verticalAlign=middle;resizable=0;points=[];autosize=1;strokeColor=none;fillColor=none;" vertex="1" parent="1">
          <mxGeometry x="125" y="620" width="70" height="30" as="geometry" />
        </mxCell>
      </root>
    </mxGraphModel>
  </diagram>
</mxfile>
